<?xml version="1.0" encoding="iso-8859-1"?>
<!-- Generator: Adobe Illustrator 19.0.0, SVG Export Plug-In . SVG Version: 6.00 Build 0)  -->
<svg version="1.1" id="Capa_1" xmlns="http://www.w3.org/2000/svg" xmlns:xlink="http://www.w3.org/1999/xlink" x="0px" y="0px"
	 viewBox="0 0 512 512" style="enable-background:new 0 0 512 512;" xml:space="preserve">
<g>
	<g>
		<g>
			<path fill="#f7f6f3" d="M196,40h120c11.046,0,20-8.954,20-20s-8.954-20-20-20H196c-11.046,0-20,8.954-20,20S184.954,40,196,40z"/>
			<path fill="#807D7D" d="M312.569,207.147l-70.71,70.71c-7.811,7.81-7.812,20.473-0.001,28.284c7.813,7.812,20.475,7.809,28.285,0l70.71-70.71
				c7.811-7.81,7.812-20.473,0.001-28.284C333.043,199.337,320.381,199.338,312.569,207.147z"/>
			<path fill="#807D7D" d="M256,72C134.413,72,36,170.396,36,292c0,121.587,98.395,220,220,220c121.59,0,220-98.398,220-220
				C476,170.413,377.604,72,256,72z M256,472c-99.252,0-180-80.748-180-180s80.748-180,180-180s180,80.748,180,180
				S355.252,472,256,472z"/>
		</g>
	</g>
</g>
<g>
</g>
<g>
</g>
<g>
</g>
<g>
</g>
<g>
</g>
<g>
</g>
<g>
</g>
<g>
</g>
<g>
</g>
<g>
</g>
<g>
</g>
<g>
</g>
<g>
</g>
<g>
</g>
<g>
</g>
</svg>
